<svg width="410" height="410" viewBox="0 0 410 410" fill="none" xmlns="http://www.w3.org/2000/svg">
<g filter="url(#filter0_d)">
<g opacity="0.1" filter="url(#filter1_d)">
<circle cx="205" cy="204" r="179" stroke="#828282" stroke-width="2"/>
</g>
<g filter="url(#filter2_ddi)">
<circle cx="205" cy="203" r="171" fill="url(#paint0_linear)" fill-opacity="0.8"/>
<circle cx="205" cy="203" r="167" stroke="url(#paint1_linear)" stroke-width="8"/>
</g>
<g filter="url(#filter3_dd)">
<circle cx="204.5" cy="203.5" r="139.5" stroke="url(#paint2_linear)" stroke-width="8"/>
<circle cx="204.5" cy="203.5" r="139.5" stroke="url(#paint3_linear)" stroke-width="8"/>
<circle cx="204.5" cy="203.5" r="139.5" stroke="url(#paint4_linear)" stroke-width="8"/>
<circle cx="204.5" cy="203.5" r="139.5" stroke="url(#paint5_linear)" stroke-opacity="0.5" stroke-width="8"/>
</g>
</g>
<g filter="url(#filter4_dd)">
<path d="M203.848 215.579C200.013 215.579 196.284 215.902 192.676 216.52L198.232 206.794C200.108 206.669 201.986 206.606 203.848 206.606C208.211 206.606 212.65 206.97 216.942 207.666L195.367 169.901L159.452 232.767L154.319 223.783L195.287 152.074L195.371 152.222L195.452 152.081L244.892 238.619H234.626L223.071 218.393C217.051 216.558 210.614 215.579 203.848 215.579Z" fill="url(#paint6_linear)" fill-opacity="0.7"/>
<path d="M203.848 215.579C200.013 215.579 196.284 215.902 192.676 216.52L198.232 206.794C200.108 206.669 201.986 206.606 203.848 206.606C208.211 206.606 212.65 206.97 216.942 207.666L195.367 169.901L159.452 232.767L154.319 223.783L195.287 152.074L195.371 152.222L195.452 152.081L244.892 238.619H234.626L223.071 218.393C217.051 216.558 210.614 215.579 203.848 215.579Z" fill="url(#paint7_linear)"/>
<path d="M203.848 215.579C200.013 215.579 196.284 215.902 192.676 216.52L198.232 206.794C200.108 206.669 201.986 206.606 203.848 206.606C208.211 206.606 212.65 206.97 216.942 207.666L195.367 169.901L159.452 232.767L154.319 223.783L195.287 152.074L195.371 152.222L195.452 152.081L244.892 238.619H234.626L223.071 218.393C217.051 216.558 210.614 215.579 203.848 215.579Z" fill="url(#paint8_linear)"/>
<path d="M203.848 215.579C200.013 215.579 196.284 215.902 192.676 216.52L198.232 206.794C200.108 206.669 201.986 206.606 203.848 206.606C208.211 206.606 212.65 206.97 216.942 207.666L195.367 169.901L159.452 232.767L154.319 223.783L195.287 152.074L195.371 152.222L195.452 152.081L244.892 238.619H234.626L223.071 218.393C217.051 216.558 210.614 215.579 203.848 215.579Z" fill="url(#paint9_linear)"/>
<path d="M248.087 232.919L200.221 149.136H210.486L253.219 223.935L248.087 232.919Z" fill="url(#paint10_linear)" fill-opacity="0.7"/>
<path d="M248.087 232.919L200.221 149.136H210.486L253.219 223.935L248.087 232.919Z" fill="url(#paint11_linear)"/>
<path d="M248.087 232.919L200.221 149.136H210.486L253.219 223.935L248.087 232.919Z" fill="url(#paint12_linear)"/>
<path d="M248.087 232.919L200.221 149.136H210.486L253.219 223.935L248.087 232.919Z" fill="url(#paint13_linear)"/>
<path d="M200.579 190.471L180.925 224.873C187.957 222.729 196.235 221.772 204.046 221.772C204.677 221.772 205.31 221.78 205.944 221.795C210.381 221.901 214.863 222.375 219.158 223.185L225.715 234.663C219.002 232.196 211.737 230.744 204.046 230.744C192.67 230.744 182.223 233.588 173.125 238.534L173.268 238.275L173.072 238.619H162.806L195.446 181.487L200.579 190.471Z" fill="url(#paint14_linear)" fill-opacity="0.7"/>
<path d="M200.579 190.471L180.925 224.873C187.957 222.729 196.235 221.772 204.046 221.772C204.677 221.772 205.31 221.78 205.944 221.795C210.381 221.901 214.863 222.375 219.158 223.185L225.715 234.663C219.002 232.196 211.737 230.744 204.046 230.744C192.67 230.744 182.223 233.588 173.125 238.534L173.268 238.275L173.072 238.619H162.806L195.446 181.487L200.579 190.471Z" fill="url(#paint15_linear)"/>
<path d="M200.579 190.471L180.925 224.873C187.957 222.729 196.235 221.772 204.046 221.772C204.677 221.772 205.31 221.78 205.944 221.795C210.381 221.901 214.863 222.375 219.158 223.185L225.715 234.663C219.002 232.196 211.737 230.744 204.046 230.744C192.67 230.744 182.223 233.588 173.125 238.534L173.268 238.275L173.072 238.619H162.806L195.446 181.487L200.579 190.471Z" fill="url(#paint16_linear)"/>
<path d="M200.579 190.471L180.925 224.873C187.957 222.729 196.235 221.772 204.046 221.772C204.677 221.772 205.31 221.78 205.944 221.795C210.381 221.901 214.863 222.375 219.158 223.185L225.715 234.663C219.002 232.196 211.737 230.744 204.046 230.744C192.67 230.744 182.223 233.588 173.125 238.534L173.268 238.275L173.072 238.619H162.806L195.446 181.487L200.579 190.471Z" fill="url(#paint17_linear)"/>
<path fill-rule="evenodd" clip-rule="evenodd" d="M204.5 283.408C248.17 283.408 283.571 247.632 283.571 203.5C283.571 159.368 248.17 123.592 204.5 123.592C160.83 123.592 125.429 159.368 125.429 203.5C125.429 247.632 160.83 283.408 204.5 283.408ZM204.693 273.663C243.144 273.663 274.314 242.163 274.314 203.305C274.314 164.447 243.144 132.947 204.693 132.947C166.242 132.947 135.071 164.447 135.071 203.305C135.071 242.163 166.242 273.663 204.693 273.663Z" fill="url(#paint18_linear)" fill-opacity="0.7"/>
<path fill-rule="evenodd" clip-rule="evenodd" d="M204.5 283.408C248.17 283.408 283.571 247.632 283.571 203.5C283.571 159.368 248.17 123.592 204.5 123.592C160.83 123.592 125.429 159.368 125.429 203.5C125.429 247.632 160.83 283.408 204.5 283.408ZM204.693 273.663C243.144 273.663 274.314 242.163 274.314 203.305C274.314 164.447 243.144 132.947 204.693 132.947C166.242 132.947 135.071 164.447 135.071 203.305C135.071 242.163 166.242 273.663 204.693 273.663Z" fill="url(#paint19_linear)"/>
<path fill-rule="evenodd" clip-rule="evenodd" d="M204.5 283.408C248.17 283.408 283.571 247.632 283.571 203.5C283.571 159.368 248.17 123.592 204.5 123.592C160.83 123.592 125.429 159.368 125.429 203.5C125.429 247.632 160.83 283.408 204.5 283.408ZM204.693 273.663C243.144 273.663 274.314 242.163 274.314 203.305C274.314 164.447 243.144 132.947 204.693 132.947C166.242 132.947 135.071 164.447 135.071 203.305C135.071 242.163 166.242 273.663 204.693 273.663Z" fill="url(#paint20_linear)"/>
<path fill-rule="evenodd" clip-rule="evenodd" d="M204.5 283.408C248.17 283.408 283.571 247.632 283.571 203.5C283.571 159.368 248.17 123.592 204.5 123.592C160.83 123.592 125.429 159.368 125.429 203.5C125.429 247.632 160.83 283.408 204.5 283.408ZM204.693 273.663C243.144 273.663 274.314 242.163 274.314 203.305C274.314 164.447 243.144 132.947 204.693 132.947C166.242 132.947 135.071 164.447 135.071 203.305C135.071 242.163 166.242 273.663 204.693 273.663Z" fill="url(#paint21_linear)"/>
<path fill-rule="evenodd" clip-rule="evenodd" d="M204.5 299C256.691 299 299 256.243 299 203.5C299 150.757 256.691 108 204.5 108C152.309 108 110 150.757 110 203.5C110 256.243 152.309 299 204.5 299ZM204.886 290.035C252.177 290.035 290.514 251.292 290.514 203.5C290.514 155.708 252.177 116.965 204.886 116.965C157.594 116.965 119.257 155.708 119.257 203.5C119.257 251.292 157.594 290.035 204.886 290.035Z" fill="url(#paint22_linear)" fill-opacity="0.7"/>
<path fill-rule="evenodd" clip-rule="evenodd" d="M204.5 299C256.691 299 299 256.243 299 203.5C299 150.757 256.691 108 204.5 108C152.309 108 110 150.757 110 203.5C110 256.243 152.309 299 204.5 299ZM204.886 290.035C252.177 290.035 290.514 251.292 290.514 203.5C290.514 155.708 252.177 116.965 204.886 116.965C157.594 116.965 119.257 155.708 119.257 203.5C119.257 251.292 157.594 290.035 204.886 290.035Z" fill="url(#paint23_linear)"/>
<path fill-rule="evenodd" clip-rule="evenodd" d="M204.5 299C256.691 299 299 256.243 299 203.5C299 150.757 256.691 108 204.5 108C152.309 108 110 150.757 110 203.5C110 256.243 152.309 299 204.5 299ZM204.886 290.035C252.177 290.035 290.514 251.292 290.514 203.5C290.514 155.708 252.177 116.965 204.886 116.965C157.594 116.965 119.257 155.708 119.257 203.5C119.257 251.292 157.594 290.035 204.886 290.035Z" fill="url(#paint24_linear)"/>
<path fill-rule="evenodd" clip-rule="evenodd" d="M204.5 299C256.691 299 299 256.243 299 203.5C299 150.757 256.691 108 204.5 108C152.309 108 110 150.757 110 203.5C110 256.243 152.309 299 204.5 299ZM204.886 290.035C252.177 290.035 290.514 251.292 290.514 203.5C290.514 155.708 252.177 116.965 204.886 116.965C157.594 116.965 119.257 155.708 119.257 203.5C119.257 251.292 157.594 290.035 204.886 290.035Z" fill="url(#paint25_linear)"/>
</g>
<defs>
<filter id="filter0_d" x="0" y="0" width="410" height="410" filterUnits="userSpaceOnUse" color-interpolation-filters="sRGB">
<feFlood flood-opacity="0" result="BackgroundImageFix"/>
<feColorMatrix in="SourceAlpha" type="matrix" values="0 0 0 0 0 0 0 0 0 0 0 0 0 0 0 0 0 0 127 0"/>
<feOffset dy="1"/>
<feGaussianBlur stdDeviation="12.5"/>
<feColorMatrix type="matrix" values="0 0 0 0 0.392157 0 0 0 0 0.352941 0 0 0 0 1 0 0 0 0.08 0"/>
<feBlend mode="normal" in2="BackgroundImageFix" result="effect1_dropShadow"/>
<feBlend mode="normal" in="SourceGraphic" in2="effect1_dropShadow" result="shape"/>
</filter>
<filter id="filter1_d" x="10" y="13" width="390" height="390" filterUnits="userSpaceOnUse" color-interpolation-filters="sRGB">
<feFlood flood-opacity="0" result="BackgroundImageFix"/>
<feColorMatrix in="SourceAlpha" type="matrix" values="0 0 0 0 0 0 0 0 0 0 0 0 0 0 0 0 0 0 127 0"/>
<feOffset dy="4"/>
<feGaussianBlur stdDeviation="7.5"/>
<feColorMatrix type="matrix" values="0 0 0 0 0 0 0 0 0 0 0 0 0 0 0 0 0 0 0.1 0"/>
<feBlend mode="normal" in2="BackgroundImageFix" result="effect1_dropShadow"/>
<feBlend mode="normal" in="SourceGraphic" in2="effect1_dropShadow" result="shape"/>
</filter>
<filter id="filter2_ddi" x="14" y="16" width="382" height="382" filterUnits="userSpaceOnUse" color-interpolation-filters="sRGB">
<feFlood flood-opacity="0" result="BackgroundImageFix"/>
<feColorMatrix in="SourceAlpha" type="matrix" values="0 0 0 0 0 0 0 0 0 0 0 0 0 0 0 0 0 0 127 0"/>
<feOffset dy="1"/>
<feGaussianBlur stdDeviation="0.5"/>
<feColorMatrix type="matrix" values="0 0 0 0 0 0 0 0 0 0 0 0 0 0 0 0 0 0 0.25 0"/>
<feBlend mode="normal" in2="BackgroundImageFix" result="effect1_dropShadow"/>
<feColorMatrix in="SourceAlpha" type="matrix" values="0 0 0 0 0 0 0 0 0 0 0 0 0 0 0 0 0 0 127 0"/>
<feOffset dy="4"/>
<feGaussianBlur stdDeviation="10"/>
<feColorMatrix type="matrix" values="0 0 0 0 0.392157 0 0 0 0 0.352941 0 0 0 0 1 0 0 0 0.05 0"/>
<feBlend mode="normal" in2="effect1_dropShadow" result="effect2_dropShadow"/>
<feBlend mode="normal" in="SourceGraphic" in2="effect2_dropShadow" result="shape"/>
<feColorMatrix in="SourceAlpha" type="matrix" values="0 0 0 0 0 0 0 0 0 0 0 0 0 0 0 0 0 0 127 0" result="hardAlpha"/>
<feOffset dy="4"/>
<feGaussianBlur stdDeviation="10"/>
<feComposite in2="hardAlpha" operator="arithmetic" k2="-1" k3="1"/>
<feColorMatrix type="matrix" values="0 0 0 0 0 0 0 0 0 0 0 0 0 0 0 0 0 0 0.25 0"/>
<feBlend mode="normal" in2="shape" result="effect3_innerShadow"/>
</filter>
<filter id="filter3_dd" x="45" y="45" width="319" height="319" filterUnits="userSpaceOnUse" color-interpolation-filters="sRGB">
<feFlood flood-opacity="0" result="BackgroundImageFix"/>
<feColorMatrix in="SourceAlpha" type="matrix" values="0 0 0 0 0 0 0 0 0 0 0 0 0 0 0 0 0 0 127 0"/>
<feOffset dy="1"/>
<feGaussianBlur stdDeviation="8"/>
<feColorMatrix type="matrix" values="0 0 0 0 0.392157 0 0 0 0 0.352941 0 0 0 0 1 0 0 0 0.2 0"/>
<feBlend mode="normal" in2="BackgroundImageFix" result="effect1_dropShadow"/>
<feColorMatrix in="SourceAlpha" type="matrix" values="0 0 0 0 0 0 0 0 0 0 0 0 0 0 0 0 0 0 127 0"/>
<feOffset dy="1"/>
<feGaussianBlur stdDeviation="0.5"/>
<feColorMatrix type="matrix" values="0 0 0 0 0 0 0 0 0 0 0 0 0 0 0 0 0 0 0.2 0"/>
<feBlend mode="normal" in2="effect1_dropShadow" result="effect2_dropShadow"/>
<feBlend mode="normal" in="SourceGraphic" in2="effect2_dropShadow" result="shape"/>
</filter>
<filter id="filter4_dd" x="85" y="84" width="239" height="241" filterUnits="userSpaceOnUse" color-interpolation-filters="sRGB">
<feFlood flood-opacity="0" result="BackgroundImageFix"/>
<feColorMatrix in="SourceAlpha" type="matrix" values="0 0 0 0 0 0 0 0 0 0 0 0 0 0 0 0 0 0 127 0"/>
<feOffset dy="1"/>
<feGaussianBlur stdDeviation="12.5"/>
<feColorMatrix type="matrix" values="0 0 0 0 0.392157 0 0 0 0 0.352941 0 0 0 0 1 0 0 0 0.08 0"/>
<feBlend mode="normal" in2="BackgroundImageFix" result="effect1_dropShadow"/>
<feColorMatrix in="SourceAlpha" type="matrix" values="0 0 0 0 0 0 0 0 0 0 0 0 0 0 0 0 0 0 127 0"/>
<feOffset dy="1"/>
<feGaussianBlur stdDeviation="0.5"/>
<feColorMatrix type="matrix" values="0 0 0 0 0 0 0 0 0 0 0 0 0 0 0 0 0 0 0.25 0"/>
<feBlend mode="normal" in2="effect1_dropShadow" result="effect2_dropShadow"/>
<feBlend mode="normal" in="SourceGraphic" in2="effect2_dropShadow" result="shape"/>
</filter>
<linearGradient id="paint0_linear" x1="675.956" y1="412.976" x2="375.669" y2="-69.0799" gradientUnits="userSpaceOnUse">
<stop stop-color="#645AFF"/>
<stop offset="0.637566" stop-color="#E40C5B"/>
<stop offset="1" stop-color="#FF4C3B"/>
</linearGradient>
<linearGradient id="paint1_linear" x1="675.956" y1="412.976" x2="375.669" y2="-69.0799" gradientUnits="userSpaceOnUse">
<stop stop-color="#645AFF"/>
<stop offset="0.637566" stop-color="#E40C5B"/>
<stop offset="1" stop-color="#FF4C3B"/>
</linearGradient>
<linearGradient id="paint2_linear" x1="599.718" y1="379.708" x2="347.722" y2="-24.8243" gradientUnits="userSpaceOnUse">
<stop stop-color="#645AFF"/>
<stop offset="0.637566" stop-color="#E40C5B"/>
<stop offset="1" stop-color="#FF4C3B"/>
</linearGradient>
<linearGradient id="paint3_linear" x1="55.5" y1="67" x2="355" y2="394.5" gradientUnits="userSpaceOnUse">
<stop stop-color="white" stop-opacity="0.78"/>
<stop offset="1" stop-color="white" stop-opacity="0"/>
</linearGradient>
<linearGradient id="paint4_linear" x1="348" y1="112.5" x2="-32" y2="357.5" gradientUnits="userSpaceOnUse">
<stop stop-color="white" stop-opacity="0.76"/>
<stop offset="1" stop-color="white" stop-opacity="0"/>
</linearGradient>
<linearGradient id="paint5_linear" x1="196.5" y1="488.5" x2="181.5" y2="60" gradientUnits="userSpaceOnUse">
<stop stop-color="white"/>
<stop offset="1" stop-color="white" stop-opacity="0"/>
</linearGradient>
<linearGradient id="paint6_linear" x1="464.765" y1="320.767" x2="296.288" y2="53.1408" gradientUnits="userSpaceOnUse">
<stop stop-color="#645AFF"/>
<stop offset="0.637566" stop-color="#E40C5B"/>
<stop offset="1" stop-color="#FF4C3B"/>
</linearGradient>
<linearGradient id="paint7_linear" x1="110" y1="108" x2="338.5" y2="370.5" gradientUnits="userSpaceOnUse">
<stop stop-color="white" stop-opacity="0.88"/>
<stop offset="1" stop-color="white" stop-opacity="0"/>
</linearGradient>
<linearGradient id="paint8_linear" x1="299" y1="61.5" x2="88" y2="355" gradientUnits="userSpaceOnUse">
<stop stop-color="white" stop-opacity="0.81"/>
<stop offset="1" stop-color="white" stop-opacity="0"/>
</linearGradient>
<linearGradient id="paint9_linear" x1="204" y1="22.5" x2="204" y2="395" gradientUnits="userSpaceOnUse">
<stop stop-color="white" stop-opacity="0.6"/>
<stop offset="1" stop-color="white" stop-opacity="0"/>
</linearGradient>
<linearGradient id="paint10_linear" x1="464.765" y1="320.767" x2="296.288" y2="53.1408" gradientUnits="userSpaceOnUse">
<stop stop-color="#645AFF"/>
<stop offset="0.637566" stop-color="#E40C5B"/>
<stop offset="1" stop-color="#FF4C3B"/>
</linearGradient>
<linearGradient id="paint11_linear" x1="110" y1="108" x2="338.5" y2="370.5" gradientUnits="userSpaceOnUse">
<stop stop-color="white" stop-opacity="0.88"/>
<stop offset="1" stop-color="white" stop-opacity="0"/>
</linearGradient>
<linearGradient id="paint12_linear" x1="299" y1="61.5" x2="88" y2="355" gradientUnits="userSpaceOnUse">
<stop stop-color="white" stop-opacity="0.81"/>
<stop offset="1" stop-color="white" stop-opacity="0"/>
</linearGradient>
<linearGradient id="paint13_linear" x1="204" y1="22.5" x2="204" y2="395" gradientUnits="userSpaceOnUse">
<stop stop-color="white" stop-opacity="0.6"/>
<stop offset="1" stop-color="white" stop-opacity="0"/>
</linearGradient>
<linearGradient id="paint14_linear" x1="464.765" y1="320.767" x2="296.288" y2="53.1408" gradientUnits="userSpaceOnUse">
<stop stop-color="#645AFF"/>
<stop offset="0.637566" stop-color="#E40C5B"/>
<stop offset="1" stop-color="#FF4C3B"/>
</linearGradient>
<linearGradient id="paint15_linear" x1="110" y1="108" x2="338.5" y2="370.5" gradientUnits="userSpaceOnUse">
<stop stop-color="white" stop-opacity="0.88"/>
<stop offset="1" stop-color="white" stop-opacity="0"/>
</linearGradient>
<linearGradient id="paint16_linear" x1="299" y1="61.5" x2="88" y2="355" gradientUnits="userSpaceOnUse">
<stop stop-color="white" stop-opacity="0.81"/>
<stop offset="1" stop-color="white" stop-opacity="0"/>
</linearGradient>
<linearGradient id="paint17_linear" x1="204" y1="22.5" x2="204" y2="395" gradientUnits="userSpaceOnUse">
<stop stop-color="white" stop-opacity="0.6"/>
<stop offset="1" stop-color="white" stop-opacity="0"/>
</linearGradient>
<linearGradient id="paint18_linear" x1="464.765" y1="320.767" x2="296.288" y2="53.1408" gradientUnits="userSpaceOnUse">
<stop stop-color="#645AFF"/>
<stop offset="0.637566" stop-color="#E40C5B"/>
<stop offset="1" stop-color="#FF4C3B"/>
</linearGradient>
<linearGradient id="paint19_linear" x1="110" y1="108" x2="338.5" y2="370.5" gradientUnits="userSpaceOnUse">
<stop stop-color="white" stop-opacity="0.88"/>
<stop offset="1" stop-color="white" stop-opacity="0"/>
</linearGradient>
<linearGradient id="paint20_linear" x1="299" y1="61.5" x2="88" y2="355" gradientUnits="userSpaceOnUse">
<stop stop-color="white" stop-opacity="0.81"/>
<stop offset="1" stop-color="white" stop-opacity="0"/>
</linearGradient>
<linearGradient id="paint21_linear" x1="204" y1="22.5" x2="204" y2="395" gradientUnits="userSpaceOnUse">
<stop stop-color="white" stop-opacity="0.6"/>
<stop offset="1" stop-color="white" stop-opacity="0"/>
</linearGradient>
<linearGradient id="paint22_linear" x1="464.765" y1="320.767" x2="296.288" y2="53.1408" gradientUnits="userSpaceOnUse">
<stop stop-color="#645AFF"/>
<stop offset="0.637566" stop-color="#E40C5B"/>
<stop offset="1" stop-color="#FF4C3B"/>
</linearGradient>
<linearGradient id="paint23_linear" x1="110" y1="108" x2="338.5" y2="370.5" gradientUnits="userSpaceOnUse">
<stop stop-color="white" stop-opacity="0.88"/>
<stop offset="1" stop-color="white" stop-opacity="0"/>
</linearGradient>
<linearGradient id="paint24_linear" x1="299" y1="61.5" x2="88" y2="355" gradientUnits="userSpaceOnUse">
<stop stop-color="white" stop-opacity="0.81"/>
<stop offset="1" stop-color="white" stop-opacity="0"/>
</linearGradient>
<linearGradient id="paint25_linear" x1="204" y1="22.5" x2="204" y2="395" gradientUnits="userSpaceOnUse">
<stop stop-color="white" stop-opacity="0.6"/>
<stop offset="1" stop-color="white" stop-opacity="0"/>
</linearGradient>
</defs>
</svg>
