<svg width="24" height="25" viewBox="0 0 24 25" fill="none" xmlns="http://www.w3.org/2000/svg">
<path d="M3.72416 1.53598C3.72144 2.0604 3.39056 2.52693 2.89657 2.70289V3.8077C2.60427 4.12036 2.32804 4.44771 2.06898 4.78841V2.70289C1.47337 2.49232 1.13091 1.868 1.27338 1.25251C1.41586 0.637011 1.99788 0.226745 2.62544 0.299319C3.253 0.371892 3.72592 0.904228 3.72416 1.53598Z" fill="#1E3498"/>
<path d="M22.7583 1.53598C22.7556 2.0604 22.4247 2.52693 21.9307 2.70288V4.7884C21.6717 4.44771 21.3955 4.12036 21.1032 3.8077V2.70288C20.5075 2.49232 20.1651 1.868 20.3076 1.2525C20.45 0.637058 21.032 0.226744 21.6596 0.299318C22.2871 0.371892 22.7601 0.904227 22.7583 1.53598Z" fill="#1E3498"/>
<path d="M17.7931 15.1908C18.4787 15.1908 19.0345 14.635 19.0345 13.9494C19.0345 13.2638 18.4787 12.708 17.7931 12.708C17.1075 12.708 16.5518 13.2638 16.5518 13.9494C16.5518 14.635 17.1075 15.1908 17.7931 15.1908Z" fill="#1E3498"/>
<path d="M11.9999 18.5019C12.914 18.5019 13.6551 17.7608 13.6551 16.8467H10.3447C10.3448 17.7608 11.0858 18.5019 11.9999 18.5019Z" fill="#1E3498"/>
<path d="M6.2072 15.1908C6.8928 15.1908 7.44859 14.635 7.44859 13.9494C7.44859 13.2638 6.8928 12.708 6.2072 12.708C5.52161 12.708 4.96582 13.2638 4.96582 13.9494C4.96582 14.635 5.52161 15.1908 6.2072 15.1908Z" fill="#1E3498"/>
<path d="M12 0.708008C5.3727 0.708008 0 6.16263 0 13.7988C0 21.9807 5.3727 24.708 12 24.708C18.6273 24.708 24 21.9807 24 13.7988C24 6.16263 18.6273 0.708008 12 0.708008ZM11.5862 6.08729H12.4138C12.6423 6.08729 12.8276 6.27254 12.8276 6.50109C12.8276 6.72963 12.6423 6.91488 12.4138 6.91488H11.5862C11.3577 6.91488 11.1724 6.72963 11.1724 6.50109C11.1724 6.27259 11.3577 6.08729 11.5862 6.08729ZM10.7587 7.32868H13.2414C13.47 7.32868 13.6552 7.51393 13.6552 7.74247C13.6552 7.97102 13.47 8.15627 13.2414 8.15627H10.7587C10.5301 8.15627 10.3449 7.97102 10.3449 7.74247C10.3449 7.51393 10.5301 7.32868 10.7587 7.32868ZM16.5517 21.3977H7.44831C4.02031 21.3977 1.24143 18.6187 1.24143 15.1908C1.24143 11.7628 4.02031 8.98386 7.44831 8.98386H16.5517C19.9797 8.98386 22.7586 11.7628 22.7586 15.1907C22.7586 18.6187 19.9797 21.3977 16.5517 21.3977Z" fill="#1E3498"/>
<path d="M16.5521 9.81152H7.44867C4.47777 9.81152 2.06934 12.2199 2.06934 15.1909C2.06934 18.1618 4.47777 20.5701 7.44867 20.5701H16.5521C19.523 20.5701 21.9314 18.1618 21.9314 15.1908C21.9314 12.2199 19.523 9.81152 16.5521 9.81152ZM6.20728 16.0184C5.0646 16.0184 4.13831 15.0922 4.13831 13.9495C4.13831 12.8068 5.0646 11.8805 6.20728 11.8805C7.34996 11.8805 8.27626 12.8068 8.27626 13.9495C8.27488 15.0915 7.34939 16.0171 6.20728 16.0184ZM12.0004 19.3288C10.6298 19.3274 9.51898 18.2166 9.51759 16.846C9.51759 16.3889 9.88814 16.0184 10.3452 16.0184H13.6555C14.1126 16.0184 14.4831 16.3889 14.4831 16.846C14.4818 18.2166 13.371 19.3274 12.0004 19.3288ZM17.7935 16.0184C16.6508 16.0184 15.7245 15.0922 15.7245 13.9495C15.7245 12.8068 16.6508 11.8805 17.7935 11.8805C18.9362 11.8805 19.8625 12.8068 19.8625 13.9495C19.8611 15.0915 18.9356 16.0171 17.7935 16.0184Z" fill="#1E3498"/>
</svg>
