<svg width="158" height="32" viewBox="0 0 158 32" fill="none" xmlns="http://www.w3.org/2000/svg">
<path d="M3.82715 3.0791C3.84197 3.07641 3.85363 3.07399 3.86133 3.07227C3.86519 3.0714 3.86835 3.07074 3.87012 3.07031L3.87207 3.06934L3.88867 3.06543L3.90625 3.06641C3.9873 3.07283 4.06826 3.07942 4.27051 3.09277H4.27832L4.28516 3.09473C4.43532 3.12654 4.55529 3.15638 4.65918 3.18555L4.93945 3.27148L5 3.29102L5.01074 3.35352C5.02586 3.44203 5.04055 3.53062 5.05566 3.61914L5.07031 3.70605L4.9873 3.73535C4.77663 3.80946 4.57372 3.89367 4.3584 3.97461C4.19947 4.03434 4.03718 4.09041 3.87109 4.13477L3.70312 4.1748C3.26867 4.26546 2.91425 4.44031 2.65039 4.69531C2.4201 4.91792 2.25415 5.20602 2.16602 5.56445L2.13281 5.72266C2.07604 6.04983 2.0702 6.39103 2.07031 6.73438L2.08691 25.5137L2.09277 25.8975C2.09867 26.023 2.11017 26.1461 2.13379 26.2656L2.17676 26.4395C2.41486 27.2409 3.12722 27.6295 3.84668 27.4678C3.78619 27.1506 3.71218 26.8413 3.64551 26.5234C3.59105 26.2638 3.54482 26.0023 3.52441 25.7393L3.5127 25.4766C3.49496 20.8659 3.51368 16.2585 3.50781 11.6504L3.49121 7.04199C3.48606 6.21513 3.64718 5.51155 3.99316 4.91699C4.33937 4.32216 4.86695 3.84425 5.58301 3.46191L5.64941 3.41699C5.71441 3.36466 5.77437 3.2902 5.83594 3.19922C5.9097 3.09019 5.99342 2.94405 6.08105 2.8291C6.12592 2.75122 6.17157 2.67289 6.25977 2.51855C6.342 2.34643 6.38004 2.25328 6.41797 2.15918L6.4248 2.1416L6.43848 2.12695C7.08677 1.43905 7.63365 1.03694 8.24512 0.926758C8.85696 0.816644 9.51062 1.00314 10.3604 1.42969L18.2637 5.40039C20.897 6.72598 23.5292 8.05434 26.1582 9.38867L26.4111 9.51855C26.6691 9.65273 26.9333 9.80595 27.1377 10.0176C27.4182 10.3081 27.5836 10.7029 27.5078 11.2852L27.499 11.3574L27.4277 11.373C27.281 11.4066 27.1281 11.4307 26.9863 11.4287C26.8806 11.4272 26.7754 11.4107 26.6816 11.3682L26.5918 11.3164C26.3509 11.1418 26.1354 10.9229 25.9268 10.7246C25.7677 10.5735 25.6112 10.4323 25.4434 10.3203L25.2705 10.2188C23.5001 9.30791 21.7237 8.40903 19.9453 7.51367L14.6074 4.83105C13.3577 4.20208 12.1199 3.55541 10.8691 2.9375L9.6123 2.33105C9.00914 2.04722 8.51059 2.0061 8.12207 2.14355C7.76244 2.27093 7.47947 2.55825 7.28809 2.99023C8.26642 3.3402 9.3086 3.6258 10.251 4.09082L14.6602 6.27637C16.129 7.00698 17.597 7.73925 19.0645 8.47266L27.8682 12.877L27.8721 12.8789L28.6162 13.2988L28.9131 13.4805C29.5717 13.9173 30.0001 14.454 30.1777 15.0791C30.3798 15.7908 30.2509 16.5975 29.8008 17.4707C29.7975 17.4817 29.7948 17.4937 29.791 17.5039C29.786 17.5174 29.778 17.5353 29.7646 17.5527C29.7449 17.5784 29.7193 17.5922 29.6982 17.6016C29.586 17.7175 29.5138 17.8189 29.4385 17.9258L29.3633 18.0332L29.3252 17.9902C28.6726 18.3456 28.0201 18.703 27.2744 19.1162L27.2715 19.1182L27.2705 19.1172C26.3536 19.5903 25.4617 20.0455 24.583 20.4941L21.9766 21.835C19.2894 23.2336 16.6071 24.6504 13.8633 26.0723L13.8613 26.0732C13.0112 26.4924 12.189 26.8852 11.3896 27.3008L10.5977 27.7256C9.48678 28.3431 8.34408 28.9059 6.96777 28.4902C7.32748 29.2806 7.6809 29.7345 8.10352 29.9209C8.55785 30.1212 9.12691 30.0272 9.94336 29.625L10.5254 29.332C11.8795 28.6381 13.2035 27.8759 14.6016 27.1348L14.6025 27.1338L17.375 25.7236C18.2887 25.2557 19.1948 24.7891 20.0996 24.3203L22.8506 22.9004C23.7652 22.4246 24.6751 21.9414 25.5742 21.4385L25.7109 21.3457C25.8417 21.2411 25.9579 21.1017 26.0762 20.9453C26.2296 20.7424 26.3892 20.5062 26.5781 20.3193L26.6719 20.2344C26.7681 20.1528 26.8718 20.0817 26.9756 20.0156C27.1182 19.9249 27.2522 19.8484 27.3848 19.7588L27.5166 19.6689L27.5459 19.8262C27.6665 20.4908 27.5659 21.018 27.2832 21.4531C27.0378 21.8306 26.6601 22.13 26.1943 22.3906L25.9902 22.5C23.6033 23.7192 21.2238 24.9538 18.8467 26.1924L11.7158 29.9111C11.1479 30.2066 10.5777 30.5404 9.98047 30.8018L9.72266 30.9092C8.4184 31.4227 7.02191 30.8874 6.33691 29.71L6.20996 29.4668C5.87938 28.7563 5.06311 28.3288 4.33301 28.4512L4.18848 28.4824C2.62002 28.9137 0.929467 27.7236 0.922852 26.0869L0.897461 16.2129C0.895788 14.5671 0.895074 12.9212 0.896484 11.2754L0.90625 6.33789C0.908916 5.44056 1.15348 4.70691 1.62988 4.15723C2.10605 3.60799 2.8046 3.25333 3.69434 3.0957L3.70605 3.09277L3.82715 3.0791ZM5.87012 4.7002C5.43035 4.88658 5.14736 5.09504 4.96777 5.37402C4.76855 5.68354 4.68603 6.09616 4.68555 6.70312L4.68359 22.1162L4.67773 23.9678C4.67715 24.5842 4.68159 25.2 4.70215 25.8154L4.71484 26.0078C4.80344 26.8883 5.2878 27.4826 5.87012 27.6348V4.7002ZM7.53223 4.31543C7.31895 4.28231 7.20694 4.31809 7.14551 4.38672C7.07787 4.46266 7.03855 4.61232 7.05859 4.88379L7.06934 5.02246C7.07031 5.08063 7.0661 5.15792 7.05664 5.27344H7.05762C7.05872 12.2595 7.05574 19.2456 7.07129 26.2314L7.07812 26.374C7.10668 26.6905 7.22207 27.0174 7.36035 27.4141C7.59237 27.4136 7.84576 27.4399 8.06445 27.4473C8.31873 27.4558 8.54275 27.4395 8.72266 27.3516L10.2744 26.5752C11.8227 25.7857 13.3664 24.9614 14.9697 24.1426L14.9805 24.1377L14.9863 24.1348L14.8887 23.8604L15.1348 24.0283C15.1453 24.0285 15.1647 24.0273 15.1973 24.0225C15.4069 23.8975 15.6183 23.7721 15.8271 23.6562L15.9053 23.6133L15.9277 23.6426C15.9412 23.6417 15.9593 23.6413 15.9834 23.6387C17.5935 22.7973 19.2032 21.9532 20.8154 21.1152L24.5156 19.2012C25.749 18.5634 26.9808 17.9231 28.208 17.2734L28.4326 17.1406C28.9203 16.8133 29.1654 16.3794 29.1855 15.9424C29.2056 15.5048 29.0009 15.0417 28.5508 14.6533L28.3428 14.4912C28.1946 14.3874 28.0377 14.2939 27.877 14.2051L27.3848 13.9492L18.1543 9.36719C15.5164 8.05768 12.879 6.74593 10.1475 5.35352L8.88574 4.84863C8.45743 4.67809 8.01213 4.50174 7.53223 4.31543Z" fill="url(#paint0_radial_1187_2297)" stroke="#4F2D6A" stroke-width="0.208333"/>
<path d="M8.02637 6.24609L8.80371 6.48242C9.57885 6.71965 10.3446 6.96745 11.0713 7.30078L12.3926 7.9248C13.7083 8.5611 15.0098 9.22891 16.3164 9.87598L26.2422 14.7988L26.5967 14.9531C26.7215 15.0065 26.8518 15.0669 26.9639 15.1436C27.0764 15.2205 27.177 15.3183 27.2354 15.4492C27.2796 15.5486 27.2961 15.6607 27.2822 15.7871L27.2578 15.9189C27.2047 16.1258 27.0417 16.3098 26.8594 16.4609C26.7667 16.5377 26.6654 16.6091 26.5635 16.6738L26.2637 16.8467C23.7159 18.1889 21.1634 19.5121 18.5957 20.8564L16.0225 22.21C14.968 22.7642 13.9223 23.3077 12.8799 23.8438L9.75684 25.4336C9.46939 25.5786 9.16892 25.7084 8.86133 25.8125L8.55176 25.9082C8.43147 25.9411 8.30497 25.9222 8.19434 25.8975C8.13844 25.885 8.08078 25.8698 8.02832 25.8564C7.97441 25.8427 7.92406 25.83 7.87598 25.8223L7.74316 25.8018L7.79688 25.6787C7.88871 25.4671 7.98382 25.2476 8.18652 24.9678L8.20117 24.9482L8.22168 24.9365C9.93888 24.0238 11.5524 23.1709 13.2158 22.3086L13.3711 22.2168C13.4144 22.1876 13.4518 22.1595 13.4883 22.1299V22.1309C13.5066 22.116 13.5247 22.1093 13.5361 22.1074C13.5521 22.1048 13.5652 22.1061 13.5723 22.1074C13.5733 22.1076 13.5742 22.1082 13.5752 22.1084C13.6917 22.0558 13.7658 22.0091 13.8369 21.9561L13.8379 21.957C13.8604 21.9405 13.8822 21.9351 13.8916 21.9346C13.8962 21.9343 13.9004 21.9353 13.9043 21.9355C13.956 21.8967 13.9766 21.8684 13.9873 21.8486C13.9986 21.8255 14.0179 21.8063 14.042 21.7949L14.3096 21.6689L14.2695 21.75C14.3627 21.7029 14.4425 21.6585 14.5205 21.6094C14.5316 21.601 14.5424 21.5955 14.5508 21.5928C14.5648 21.5882 14.5771 21.588 14.582 21.5879C14.5873 21.5878 14.5914 21.5886 14.5938 21.5889H14.6055C14.7183 21.5343 14.7909 21.4866 14.8662 21.4336L14.8672 21.4326C14.8771 21.4258 14.886 21.4223 14.8896 21.4209C14.8937 21.4194 14.8967 21.4175 14.8984 21.417C14.9013 21.4162 14.9044 21.4162 14.9053 21.416L14.9072 21.415H14.9092C14.9111 21.4146 14.9138 21.4131 14.918 21.4121C14.9656 21.3699 14.9875 21.3376 15.0068 21.3008C15.0245 21.2632 15.0588 21.2492 15.0684 21.2461C15.0938 21.2378 15.1156 21.2419 15.1172 21.2422C15.1192 21.2425 15.1212 21.2428 15.123 21.2432C15.1258 21.2432 15.1302 21.2426 15.1367 21.2422C15.4951 21.0715 15.794 20.9086 16.1387 20.7334L16.1523 20.7266L16.167 20.7236C16.1862 20.7199 16.206 20.7149 16.2422 20.707C16.2618 20.7028 16.2874 20.699 16.3125 20.6963C16.3451 20.6838 16.3582 20.6738 16.3633 20.668C16.3675 20.6631 16.3716 20.656 16.374 20.6396L16.3828 20.6406C16.3821 20.631 16.3806 20.621 16.3818 20.6113C16.4135 20.5719 16.471 20.5509 16.4814 20.5508C16.4854 20.551 16.4913 20.5525 16.4932 20.5527H16.4961C16.4917 20.552 16.4886 20.5518 16.4883 20.5518C16.49 20.5518 16.4992 20.5508 16.5215 20.5488C16.7639 20.47 16.942 20.4151 17.1045 20.3311L24.6621 16.4121L25.2715 16.1104C25.4374 16.0305 25.6155 15.9441 25.8154 15.8477C24.0071 15.0035 22.3695 14.2388 20.7217 13.4609L20.7051 13.4531H20.7041C20.6916 13.4492 20.675 13.4429 20.6572 13.4316C20.6459 13.4244 20.6372 13.4135 20.627 13.4033L20.626 13.4053C20.5834 13.3732 20.5482 13.3501 20.5098 13.3262C20.4727 13.3031 20.4309 13.2773 20.3799 13.2432C20.1996 13.1517 20.0295 13.0703 19.8584 12.9883C19.6859 12.9056 19.5116 12.8225 19.3271 12.7295L19.3262 12.7285C18.1268 12.1048 16.9593 11.4908 15.7891 10.9014L14.6162 10.3203C12.4328 9.25908 10.2309 8.23695 8.03516 7.19727L7.98633 7.1748L7.97754 7.12109C7.93555 6.88246 7.89121 6.63482 7.8916 6.3457L7.89258 6.20508L8.02637 6.24609ZM13.5928 22.1172C13.5976 22.1192 13.6017 22.1208 13.6055 22.123C13.6014 22.1206 13.5995 22.1176 13.5986 22.1172C13.5965 22.1162 13.5946 22.115 13.5928 22.1143V22.1172ZM13.9697 21.9648C13.9668 21.962 13.9652 21.9591 13.9639 21.958C13.9615 21.9561 13.9583 21.9557 13.9561 21.9541C13.9616 21.9579 13.9662 21.9615 13.9697 21.9648Z" fill="url(#paint1_radial_1187_2297)" stroke="#4F2D6A" stroke-width="0.208333"/>
<path d="M145.971 11.1267C146.174 11.2211 146.3 11.2898 146.478 11.3855C146.599 11.5073 146.668 11.6021 146.801 11.7918C146.973 12.0448 147.081 12.2029 147.189 12.361C147.384 12.9644 147.58 13.5678 147.825 14.3244C146.74 14.3244 145.811 14.3562 144.888 14.2997C144.684 14.2872 144.444 13.9952 144.313 13.7765C143.532 12.4698 140.821 12.0281 139.703 13.0439C138.91 13.7646 139.223 15.0655 140.354 15.4464C141.375 15.7904 142.443 15.9942 143.491 16.2598C144.085 16.4104 144.688 16.5329 145.272 16.7162C147.244 17.3356 147.968 18.1953 148.128 20.0557C148.28 21.8386 147.445 23.4355 145.818 24.1944C143.442 25.303 140.992 25.2064 138.454 24.4214C138.373 24.4018 138.357 24.3918 138.301 24.3484C137.75 24.009 137.255 23.7131 136.761 23.4171C136.761 23.4171 136.759 23.4125 136.741 23.3591C136.663 23.2663 136.603 23.227 136.543 23.1877C136.543 23.1877 136.538 23.1997 136.53 23.1389C136.459 23.0307 136.397 22.9834 136.335 22.9361C136.335 22.9361 136.334 22.9713 136.34 22.9068C136.279 22.7889 136.213 22.7356 136.147 22.6823C136.147 22.6823 136.164 22.7182 136.159 22.6361C135.934 22.0876 135.715 21.6212 135.496 21.1549C135.504 21.047 135.47 20.9004 135.528 20.8375C136.042 20.2746 138.482 20.4872 138.885 21.1191C139.833 22.6061 142.784 23.1274 144.199 22.0577C145.143 21.3441 145.09 19.9904 144.013 19.4825C143.21 19.1039 142.311 18.9215 141.446 18.6824C140.441 18.4042 139.402 18.2274 138.42 17.8852C136.652 17.2692 136.006 16.2935 136.009 14.4752C136.011 12.758 136.973 11.1136 138.468 10.6767C140.97 9.94573 143.487 9.78636 145.971 11.1267Z" fill="#17181C"/>
<path d="M157.455 24.4997C157.417 24.5853 157.379 24.671 157.32 24.8239C156.151 24.8522 154.984 24.928 153.858 24.7486C151.918 24.4395 151.281 23.6866 151.217 21.71C151.149 19.6239 151.195 17.5341 151.192 15.446C151.191 14.5854 151.192 13.7248 151.192 12.7678C150.407 12.7068 149.706 12.6522 148.896 12.5891C148.896 11.9124 148.896 11.2735 148.911 10.538C148.926 10.4414 148.919 10.4488 149.016 10.4508C149.546 10.4303 149.979 10.4078 150.463 10.3961C150.515 10.4069 150.617 10.3793 150.714 10.3908C150.924 10.1788 151.127 9.95777 151.133 9.73111C151.158 8.88202 151.118 8.03107 151.158 7.10623C152.317 7.0067 153.42 6.98174 154.528 6.9517C154.533 6.94662 154.519 6.94895 154.518 7.04958C154.517 8.20266 154.517 9.25512 154.517 10.4454C155.57 10.4454 156.45 10.4454 157.337 10.4962C157.344 10.5471 157.403 10.6304 157.388 10.7289C157.373 11.4223 157.373 12.0172 157.373 12.7199C156.329 12.7199 155.478 12.7199 154.512 12.7199C154.512 15.0564 154.511 17.2825 154.513 19.5085C154.514 22.0447 154.666 22.1916 157.224 22.1532C157.26 22.1527 157.296 22.1498 157.332 22.148C157.332 22.148 157.335 22.1328 157.345 22.2324C157.388 23.0545 157.421 23.7771 157.455 24.4997Z" fill="#17181C"/>
<path d="M115.604 21.499C115.483 21.8463 115.367 22.1098 115.27 22.3801C114.42 24.7469 114.42 24.7064 111.923 24.7317C111.096 24.7401 110.693 24.4776 110.45 23.7046C110.062 22.4677 109.583 21.2592 109.086 19.9847C109.029 19.9308 109.02 19.9428 109.027 19.8782C108.97 19.6968 108.906 19.5801 108.841 19.4633C108.841 19.4633 108.833 19.4778 108.837 19.3936C108.256 17.7026 107.67 16.0958 107.085 14.4891C107.085 14.4891 107.079 14.5086 107.084 14.4299C106.864 13.8154 106.639 13.2795 106.414 12.7435C106.414 12.7435 106.416 12.6632 106.408 12.5431C106.114 11.7333 105.827 11.0437 105.54 10.354C105.54 10.354 105.543 10.2825 105.54 10.1691C105.332 9.58071 105.128 9.10567 104.924 8.63062C104.924 8.63062 104.918 8.65067 104.929 8.57744C104.859 8.33088 104.778 8.15757 104.697 7.98425C104.697 7.98425 104.689 8.00866 104.702 7.93582C104.634 7.68883 104.553 7.51466 104.471 7.3405C104.471 7.3405 104.467 7.35979 104.475 7.2787C104.187 6.59237 103.891 5.98714 103.593 5.33628C103.59 5.29065 103.559 5.20431 103.621 5.13483C104.654 5.05262 105.627 5.08402 106.593 5.01297C107.348 4.95746 107.687 5.28135 107.898 5.96175C108.289 7.21908 108.743 8.45645 109.171 9.70214C109.171 9.70214 109.143 9.73475 109.159 9.74918C110.213 13.1643 111.25 16.565 112.288 19.9658C112.397 19.9946 112.505 20.0235 112.614 20.0523C112.8 19.7812 113.06 19.535 113.16 19.2353C114.61 14.8596 116.057 10.4827 117.454 6.09011C117.698 5.32281 118.008 4.91503 118.868 5.02027C119.436 5.08978 120.021 5.05053 120.596 5.02451C121.389 4.98869 121.683 5.27132 121.328 6.04646C121.185 6.35793 121.064 6.67938 120.904 7.14488C120.815 7.46068 120.754 7.62786 120.694 7.79505C120.694 7.79505 120.694 7.79167 120.692 7.79103C120.107 9.1993 119.476 10.5902 118.953 12.0208C117.812 15.1426 116.726 18.2846 115.604 21.499Z" fill="#17181C"/>
<path d="M123.541 11.0989C125.254 10.2101 127.096 9.98748 128.964 10.2662C131.674 10.6708 133.669 12.801 134.198 15.7499C134.344 16.5571 134.345 17.3901 134.423 18.3427C130.822 18.3427 127.341 18.3427 123.877 18.3427C123.655 19.9805 124.333 21.3934 125.6 22.0909C126.959 22.8393 129.147 22.6672 130.209 21.7286C131.548 20.5451 132.094 20.4055 134.064 20.8016C133.246 22.9033 131.852 24.2684 129.644 24.7736C126.137 25.5758 123.05 24.4576 121.462 21.7196C119.692 18.6693 120.376 14.1242 122.974 11.7411C123.157 11.5731 123.335 11.3998 123.527 11.1561C123.539 11.0831 123.541 11.0989 123.541 11.0989ZM126.888 16.2377C128.266 16.2377 129.645 16.2377 131.032 16.2377C130.836 13.8409 129.533 12.5613 127.53 12.6004C125.281 12.6443 123.989 13.8928 123.899 16.2362C124.826 16.2362 125.749 16.2362 126.888 16.2377Z" fill="#17181C"/>
<path d="M100.839 24.5639C100.776 24.0455 100.776 23.5907 100.776 22.8239C99.1106 24.5818 97.262 25.0749 95.2133 24.9869C92.8114 24.8837 91.2153 23.6182 90.975 21.6197C90.6626 19.0214 91.7239 17.3411 94.2516 16.6898C95.746 16.3048 97.2935 16.1272 98.815 15.8451C99.6276 15.6944 100.4 15.4766 100.402 14.4192C100.405 13.3974 99.7267 12.982 98.8757 12.7302C97.1071 12.2071 95.9654 12.6339 94.8317 14.1956C94.7083 14.3656 94.4356 14.5112 94.2259 14.52C93.3684 14.5563 92.5083 14.5352 91.2928 14.5352C91.753 13.515 92.1194 12.7028 92.5942 11.7944C92.9996 11.4569 93.2631 11.1457 93.5987 10.985C96.068 9.80249 98.6156 9.98312 101.243 10.652C101.696 10.8916 102.087 11.0892 102.48 11.2844C102.483 11.282 102.483 11.2895 102.52 11.3403C102.658 11.4629 102.759 11.5346 102.862 11.6079C102.863 11.6096 102.856 11.6087 102.88 11.6818C103.15 12.7106 103.563 13.6584 103.608 14.6233C103.713 16.8772 103.607 19.1399 103.655 21.3976C103.677 22.4257 103.861 23.4503 103.972 24.4765C102.949 24.5268 101.926 24.5771 100.839 24.5639ZM100.48 18.5673C100.453 18.2676 100.427 17.9678 100.404 17.6941C99.403 17.8638 98.5206 18.0048 97.6418 18.1654C97.0064 18.2814 96.3557 18.3637 95.7472 18.5668C94.5947 18.9513 94.0713 19.8506 94.2497 20.9806C94.3988 21.9255 95.1055 22.4862 96.2646 22.5792C98.8988 22.7907 100.205 21.6011 100.48 18.5673Z" fill="#17181C"/>
<path d="M87.3118 11.1535C87.3371 11.1869 87.3625 11.2203 87.4454 11.2783C88.5128 12.49 88.8778 13.8876 88.8691 15.4162C88.8517 18.4486 88.846 21.481 88.8326 24.6163C88.8297 24.7192 88.8247 24.7111 88.7243 24.7163C87.5967 24.6461 86.5696 24.5708 85.5603 24.3963C85.5763 21.6344 85.6231 18.9703 85.5435 16.31C85.519 15.4905 85.1492 14.6814 84.9329 13.8734C84.9284 13.8792 84.9411 13.8716 84.9187 13.7994C83.732 12.6894 82.0927 12.5664 80.7755 13.4218C80.7757 13.4257 80.7711 13.4174 80.6995 13.4345C79.4464 14.2558 79.2128 15.4945 79.1773 16.7792C79.1294 18.5084 79.1671 20.2397 79.1528 21.97C79.1286 24.8798 79.1235 24.8803 76.1598 24.6636C76.0977 24.659 76.0397 24.5997 75.9126 24.5282C75.9126 19.9017 75.9126 15.2408 75.9126 10.5927C78.5721 10.1711 78.6958 10.2472 79.1303 12.4766C79.7628 11.8799 80.4099 11.2696 81.0569 10.6592C81.0569 10.6592 81.0348 10.6373 81.1273 10.6384C83.3286 9.88549 85.3703 9.9264 87.3118 11.1535Z" fill="#17181C"/>
<path d="M42.235 24.679C42.2439 18.2562 42.2462 11.8371 42.2281 5.31977C42.2239 5.18861 42.2401 5.15567 42.3651 5.08066C44.5543 5.02044 46.6345 5.00228 48.8119 5.00317C51.1675 4.96511 53.3497 5.2601 55.3461 6.41461C55.3641 6.38246 55.3822 6.3503 55.4171 6.41776C56.1091 7.20566 56.92 7.80528 57.4369 8.59686C60.4797 13.2565 59.4435 19.8995 55.1937 23.4033C55.1937 23.4033 55.2082 23.4069 55.1344 23.4126C54.6689 23.6267 54.2772 23.8351 53.8855 24.0435C53.8855 24.0435 53.9017 24.0488 53.8172 24.0439C52.1122 24.3273 50.5005 24.7741 48.869 24.8642C46.8014 24.9784 44.7178 24.8025 42.5746 24.7318C42.4166 24.6974 42.3251 24.683 42.2337 24.6686C42.2337 24.6686 42.2286 24.6828 42.235 24.679ZM53.9235 19.9571C53.9235 19.9571 53.9269 19.9859 54.0436 19.9479C54.0789 19.8774 54.1142 19.8068 54.1371 19.736C54.1371 19.736 54.1447 19.7459 54.2665 19.6726C54.4084 19.4275 54.5503 19.1824 54.6757 18.9374C54.6757 18.9374 54.6771 18.954 54.782 18.8365C55.7167 16.5483 55.749 14.1968 55.1066 11.8559C54.8998 11.1023 54.3294 10.4485 53.9211 9.76068C53.9211 9.76068 53.9327 9.75643 53.8859 9.63667C53.7823 9.56188 53.6787 9.48709 53.5886 9.42042C53.5886 9.42042 53.5951 9.40609 53.5292 9.28767C53.3018 9.15075 53.0743 9.01384 52.837 8.89218C52.837 8.89218 52.8503 8.87981 52.7538 8.75903C50.5616 7.61095 48.2232 8.02903 45.8978 7.9632C45.8978 12.6503 45.8978 17.1798 45.8978 21.9378C47.6077 21.8312 49.2454 21.7291 51.0328 21.6349C51.4269 21.4518 51.8211 21.2687 52.3623 21.0661C52.6252 20.9556 52.888 20.8451 53.1404 20.6727C53.1404 20.6727 53.1412 20.7354 53.2667 20.6926C53.3535 20.5984 53.4403 20.5041 53.5015 20.4021C53.5015 20.4021 53.4939 20.4278 53.6205 20.3946C53.6655 20.3229 53.7104 20.2512 53.7155 20.1805C53.7155 20.1805 53.7166 20.2204 53.8386 20.1778C53.8765 20.1031 53.9144 20.0284 53.9235 19.9571Z" fill="#17181C"/>
<path d="M66.6472 29.6518C65.137 31.1637 63.2188 31.0197 61.2079 30.9756C61.0936 30.9876 61.1332 30.9581 61.1332 30.9581C61.1245 30.1103 61.1157 29.2625 61.1 28.315C61.093 28.2153 61.1032 28.2313 61.1032 28.2313C63.8454 28.2657 64.3634 27.9867 65.2845 25.619C65.4922 25.085 65.4895 24.3282 65.2786 23.7946C63.6087 19.5702 61.8641 15.3753 60.1467 11.1697C60.0693 10.9803 60.0319 10.7746 59.9438 10.463C61.0366 10.463 62.0447 10.3984 63.0348 10.5035C63.322 10.5339 63.6708 11.0083 63.799 11.3511C64.7963 14.0185 65.7447 16.7043 66.7138 19.3823C66.86 19.7863 67.0353 20.1797 67.2986 20.8275C68.0926 18.6572 68.813 16.7126 69.5147 14.7613C69.9419 13.5734 70.2949 12.3561 70.7818 11.1943C70.9153 10.8758 71.3915 10.55 71.7455 10.5054C72.554 10.4034 73.3841 10.4732 74.391 10.4732C73.7318 12.138 73.13 13.664 72.5237 15.1883C70.884 19.3099 69.2485 23.4332 67.5957 27.5496C67.3276 28.2173 66.9797 28.8531 66.6653 29.5835C66.6617 29.6634 66.6472 29.6518 66.6472 29.6518Z" fill="#17181C"/>
<defs>
<radialGradient id="paint0_radial_1187_2297" cx="0" cy="0" r="1" gradientUnits="userSpaceOnUse" gradientTransform="translate(15.5833 16) rotate(90) scale(15 14.5833)">
<stop stop-color="#4F2D6A"/>
<stop offset="0.495192" stop-color="#B375B3"/>
<stop offset="1" stop-color="#4F2D6A"/>
</radialGradient>
<radialGradient id="paint1_radial_1187_2297" cx="0" cy="0" r="1" gradientUnits="userSpaceOnUse" gradientTransform="translate(17.5379 16.0836) rotate(90) scale(9.73787 9.64528)">
<stop stop-color="#4F2D6A"/>
<stop offset="0.495192" stop-color="#B375B3"/>
<stop offset="1" stop-color="#4F2D6A"/>
</radialGradient>
</defs>
</svg>
