<svg width="20" height="20" viewBox="0 0 20 20" fill="none" xmlns="http://www.w3.org/2000/svg">
<path d="M15.3733 15.2122L14.8648 14.3511L15.3733 15.2122ZM15.7829 14.4947H14.7829H15.7829ZM9.13841 17.8369L8.60195 18.6809L9.13841 17.8369ZM10.8799 17.8655L11.3884 18.7266L10.8799 17.8655ZM1.58715 6.78133L1.07522 5.9223L1.58715 6.78133ZM1.58715 7.49719L1.07522 8.35622L1.58715 7.49719ZM10.427 12.2567L10.9389 13.1158L10.427 12.2567ZM9.5738 12.2567L10.0857 11.3977L9.5738 12.2567ZM18.4137 6.78133L18.9256 5.9223L18.4137 6.78133ZM18.4137 7.49719L17.9017 6.63816L18.4137 7.49719ZM5.01506 15.2159L5.55151 14.372L5.01506 15.2159ZM10.427 2.02177L9.91509 2.8808H9.91509L10.427 2.02177ZM9.5738 2.02177L10.0857 2.8808V2.8808L9.5738 2.02177ZM19.5004 7.12539C19.5004 6.5731 19.0527 6.12539 18.5004 6.12539C17.9481 6.12539 17.5004 6.5731 17.5004 7.12539H19.5004ZM17.5004 11.6254C17.5004 12.1777 17.9481 12.6254 18.5004 12.6254C19.0527 12.6254 19.5004 12.1777 19.5004 11.6254H17.5004ZM9.91509 2.8808L17.9017 7.64036L18.9256 5.9223L10.9389 1.16275L9.91509 2.8808ZM17.9017 6.63816L9.91509 11.3977L10.9389 13.1158L18.9256 8.35622L17.9017 6.63816ZM2.09908 7.64036L10.0857 2.8808L9.06188 1.16275L1.07522 5.9223L2.09908 7.64036ZM10.0857 11.3977L5.14069 8.45077L4.11684 10.1688L9.06187 13.1158L10.0857 11.3977ZM5.14069 8.45077L2.09908 6.63816L1.07522 8.35622L4.11684 10.1688L5.14069 8.45077ZM3.62877 9.3098V14.5126H5.62877V9.3098H3.62877ZM4.47861 16.0598L8.60195 18.6809L9.67486 16.993L5.55151 14.372L4.47861 16.0598ZM11.3884 18.7266L15.8817 16.0733L14.8648 14.3511L10.3715 17.0044L11.3884 18.7266ZM16.7829 14.4947L16.7829 9.3098L14.7829 9.3098L14.7829 14.4947L16.7829 14.4947ZM15.8817 16.0733C16.4402 15.7435 16.7829 15.1432 16.7829 14.4947H14.7829C14.7829 14.4357 14.814 14.3811 14.8648 14.3511L15.8817 16.0733ZM8.60195 18.6809C9.44828 19.2188 10.5249 19.2365 11.3884 18.7266L10.3715 17.0044C10.1556 17.1319 9.88644 17.1275 9.67486 16.993L8.60195 18.6809ZM1.07522 5.9223C0.153308 6.47171 0.153314 7.80681 1.07522 8.35622L2.09908 6.63816C2.47869 6.86438 2.47869 7.41413 2.09908 7.64036L1.07522 5.9223ZM9.91509 11.3977C9.96766 11.3664 10.0332 11.3664 10.0857 11.3977L9.06187 13.1158C9.64012 13.4604 10.3607 13.4604 10.9389 13.1158L9.91509 11.3977ZM17.9017 7.64036C17.5221 7.41413 17.5221 6.86438 17.9017 6.63816L18.9256 8.35622C19.8475 7.80681 19.8475 6.47171 18.9256 5.9223L17.9017 7.64036ZM3.62877 14.5126C3.62877 15.1398 3.94934 15.7234 4.47861 16.0598L5.55151 14.372C5.59962 14.4026 5.62877 14.4556 5.62877 14.5126H3.62877ZM10.9389 1.16275C10.3607 0.818148 9.64012 0.818147 9.06188 1.16275L10.0857 2.8808C10.0332 2.91213 9.96766 2.91213 9.91509 2.8808L10.9389 1.16275ZM17.5004 7.12539V11.6254H19.5004V7.12539H17.5004Z" fill="black"/>
</svg>
