<svg width="16" height="16" viewBox="0 0 16 16" fill="none" xmlns="http://www.w3.org/2000/svg">
<path fill-rule="evenodd" clip-rule="evenodd" d="M3.667 2C3.22488 2 2.80088 2.17563 2.48825 2.48825C2.17563 2.80088 2 3.22488 2 3.667V12.333C2 12.5519 2.04312 12.7687 2.12689 12.9709C2.21067 13.1732 2.33346 13.357 2.48825 13.5117C2.64305 13.6665 2.82682 13.7893 3.02907 13.8731C3.23132 13.9569 3.44808 14 3.667 14H12.333C12.5519 14 12.7687 13.9569 12.9709 13.8731C13.1732 13.7893 13.3569 13.6665 13.5117 13.5117C13.6665 13.3569 13.7893 13.1732 13.8731 12.9709C13.9569 12.7687 14 12.5519 14 12.333V3.667C14 3.44808 13.9569 3.23132 13.8731 3.02907C13.7893 2.82682 13.6665 2.64305 13.5117 2.48825C13.357 2.33346 13.1732 2.21067 12.9709 2.12689C12.7687 2.04312 12.5519 2 12.333 2H3.667ZM1.07404 1.07404C1.76174 0.386343 2.69445 0 3.667 0H12.333C12.8146 0 13.2914 0.09485 13.7363 0.279134C14.1812 0.463418 14.5854 0.733527 14.926 1.07404C15.2665 1.41455 15.5366 1.8188 15.7209 2.2637C15.9052 2.7086 16 3.18544 16 3.667V12.333C16 12.8146 15.9052 13.2914 15.7209 13.7363C15.5366 14.1812 15.2665 14.5855 14.926 14.926C14.5855 15.2665 14.1812 15.5366 13.7363 15.7209C13.2914 15.9052 12.8146 16 12.333 16H3.667C3.18544 16 2.7086 15.9052 2.2637 15.7209C1.8188 15.5366 1.41455 15.2665 1.07404 14.926C0.733527 14.5854 0.463418 14.1812 0.279134 13.7363C0.09485 13.2914 0 12.8146 0 12.333V3.667C0 2.69445 0.386343 1.76174 1.07404 1.07404Z" fill="#8E8E93"/>
</svg>
