<svg width="27" height="27" viewBox="0 0 27 27" fill="none" xmlns="http://www.w3.org/2000/svg">
<path d="M9.44901 22.9523V14.8503C9.44901 13.3588 8.23988 12.1497 6.74835 12.1497H4.04769C2.55616 12.1497 1.34703 13.3588 1.34703 14.8503V22.9523C1.34703 24.4438 2.55616 25.653 4.04769 25.653H6.74835C8.23988 25.653 9.44901 24.4438 9.44901 22.9523ZM9.44901 22.9523V9.44901C9.44901 7.95748 10.6581 6.74835 12.1497 6.74835H14.8503C16.3419 6.74835 17.551 7.95748 17.551 9.44901V22.9523M9.44901 22.9523C9.44901 24.4438 10.6581 25.653 12.1497 25.653H14.8503C16.3419 25.653 17.551 24.4438 17.551 22.9523M17.551 22.9523V4.04769C17.551 2.55616 18.7601 1.34703 20.2516 1.34703H22.9523C24.4438 1.34703 25.653 2.55616 25.653 4.04769V22.9523C25.653 24.4438 24.4438 25.653 22.9523 25.653H20.2516C18.7601 25.653 17.551 24.4438 17.551 22.9523Z" stroke="#121212" stroke-width="1.33" stroke-linecap="round" stroke-linejoin="round"/>
</svg>
