<svg width="27" height="27" viewBox="0 0 27 27" fill="none" xmlns="http://www.w3.org/2000/svg">
<path d="M11.2377 3.12583C11.8135 0.754098 15.1865 0.7541 15.7623 3.12584C16.1343 4.65795 17.8896 5.38503 19.236 4.56467C21.3202 3.29474 23.7053 5.67984 22.4353 7.76405C21.615 9.11042 22.3421 10.8657 23.8742 11.2377C26.2459 11.8135 26.2459 15.1865 23.8742 15.7623C22.3421 16.1343 21.615 17.8896 22.4353 19.236C23.7053 21.3202 21.3202 23.7053 19.236 22.4353C17.8896 21.615 16.1343 22.3421 15.7623 23.8742C15.1865 26.2459 11.8135 26.2459 11.2377 23.8742C10.8657 22.3421 9.11042 21.615 7.76405 22.4353C5.67984 23.7053 3.29474 21.3202 4.56467 19.236C5.38503 17.8896 4.65795 16.1343 3.12584 15.7623C0.7541 15.1865 0.754098 11.8135 3.12583 11.2377C4.65795 10.8657 5.38503 9.11042 4.56467 7.76405C3.29473 5.67984 5.67984 3.29473 7.76405 4.56466C9.11042 5.38502 10.8657 4.65795 11.2377 3.12583Z" stroke="#121212" stroke-width="1.33" stroke-linecap="round" stroke-linejoin="round"/>
<path d="M17.551 13.5C17.551 15.7373 15.7373 17.551 13.5 17.551C11.2627 17.551 9.44901 15.7373 9.44901 13.5C9.44901 11.2627 11.2627 9.44901 13.5 9.44901C15.7373 9.44901 17.551 11.2627 17.551 13.5Z" stroke="#121212" stroke-width="1.33" stroke-linecap="round" stroke-linejoin="round"/>
</svg>
