<svg width="13" height="13" viewBox="0 0 13 13" fill="none" xmlns="http://www.w3.org/2000/svg">
<path d="M3.05578 5.48891C3.53771 5.48891 4.00882 5.346 4.40954 5.07825C4.81025 4.81051 5.12257 4.42994 5.307 3.98469C5.49143 3.53944 5.53968 3.0495 5.44566 2.57683C5.35164 2.10415 5.11957 1.66997 4.77879 1.32919C4.43801 0.988414 4.00383 0.75634 3.53115 0.662319C3.05848 0.568299 2.56854 0.616554 2.12329 0.800982C1.67804 0.985411 1.29748 1.29773 1.02973 1.69844C0.761979 2.09916 0.619069 2.57027 0.619069 3.05221C0.619774 3.69824 0.876725 4.31762 1.33354 4.77444C1.79036 5.23126 2.40974 5.48821 3.05578 5.48891ZM3.05578 2.23997C3.21642 2.23997 3.37346 2.28761 3.50703 2.37686C3.6406 2.46611 3.74471 2.59296 3.80618 2.74138C3.86766 2.88979 3.88374 3.05311 3.8524 3.21067C3.82106 3.36822 3.74371 3.51295 3.63011 3.62654C3.51652 3.74014 3.37179 3.81749 3.21424 3.84883C3.05668 3.88017 2.89336 3.86409 2.74495 3.80261C2.59653 3.74114 2.46968 3.63703 2.38043 3.50346C2.29118 3.36989 2.24354 3.21285 2.24354 3.05221C2.24368 2.83683 2.32931 2.63032 2.4816 2.47803C2.63389 2.32574 2.8404 2.24011 3.05578 2.23997ZM9.94709 7.50682C9.46516 7.50682 8.99404 7.64972 8.59333 7.91747C8.19262 8.18522 7.8803 8.56578 7.69587 9.01103C7.51144 9.45628 7.46318 9.94622 7.5572 10.4189C7.65123 10.8916 7.8833 11.3258 8.22408 11.6665C8.56486 12.0073 8.99904 12.2394 9.47171 12.3334C9.94439 12.4274 10.4343 12.3792 10.8796 12.1947C11.3248 12.0103 11.7054 11.698 11.9731 11.2973C12.2409 10.8966 12.3838 10.4255 12.3838 9.94352C12.3831 9.29748 12.1261 8.67811 11.6693 8.22129C11.2125 7.76447 10.5931 7.50752 9.94709 7.50682ZM9.94709 10.7558C9.78645 10.7558 9.62941 10.7081 9.49584 10.6189C9.36227 10.5296 9.25816 10.4028 9.19668 10.2544C9.13521 10.1059 9.11912 9.94262 9.15046 9.78506C9.1818 9.6275 9.25916 9.48278 9.37275 9.36918C9.48635 9.25559 9.63107 9.17823 9.78863 9.14689C9.94619 9.11555 10.1095 9.13164 10.2579 9.19311C10.4063 9.25459 10.5332 9.3587 10.6224 9.49227C10.7117 9.62584 10.7593 9.78288 10.7593 9.94352C10.7592 10.1589 10.6736 10.3654 10.5213 10.5177C10.369 10.67 10.1625 10.7556 9.94709 10.7558ZM12.7613 0.237964C12.6859 0.162523 12.5964 0.102677 12.4979 0.0618463C12.3993 0.0210155 12.2937 0 12.1871 0C12.0804 0 11.9748 0.0210155 11.8762 0.0618463C11.7777 0.102677 11.6882 0.162523 11.6128 0.237964L0.241485 11.6093C0.165293 11.6845 0.104733 11.7741 0.0632896 11.8728C0.0218465 11.9715 0.000338623 12.0775 3.96647e-06 12.1846C-0.000330691 12.2917 0.0205144 12.3978 0.0613396 12.4968C0.102165 12.5958 0.162164 12.6857 0.237884 12.7614C0.313605 12.8371 0.403551 12.8971 0.502548 12.9379C0.601545 12.9788 0.707637 12.9996 0.814719 12.9993C0.921801 12.9989 1.02776 12.9774 1.12649 12.936C1.22523 12.8945 1.3148 12.834 1.39003 12.7578L12.7613 1.38646C12.8368 1.31107 12.8966 1.22154 12.9374 1.12301C12.9783 1.02448 12.9993 0.918869 12.9993 0.812214C12.9993 0.705559 12.9783 0.599949 12.9374 0.501417C12.8966 0.402886 12.8368 0.313363 12.7613 0.237964Z" fill="white"/>
</svg>
